<?xml version="1.0" encoding="utf-8"?>
<!-- Generator: Adobe Illustrator 22.1.0, SVG Export Plug-In . SVG Version: 6.00 Build 0)  -->
<svg version="1.1" id="Capa_1" xmlns="http://www.w3.org/2000/svg" xmlns:xlink="http://www.w3.org/1999/xlink" x="0px" y="0px"
	 width="104.3px" height="21.8px" viewBox="0 0 104.3 21.8" style="enable-background:new 0 0 104.3 21.8;" xml:space="preserve">
<style type="text/css">
	.st0{fill:#C10230;}
	.st1{fill:#FFFFFF;}
	.st2{fill:#2A2022;}
</style>
<g>
	<path class="st0" d="M12.2,0.8C6.7,0.8,2.2,5.3,2.2,10.9C2.2,16.5,6.7,21,12.2,21c5.6,0,10.1-4.5,10.1-10.1
		C22.3,5.3,17.8,0.8,12.2,0.8 M15.7,4.4c-0.7,0.9-0.4,1.8-0.1,2.6C15.4,7,15.2,7,15,6.9c-0.1-0.5-0.3-1-0.1-1.6
		c-0.4-0.1-0.6,0.3-0.7,0.6c0-0.2,0-0.5-0.1-0.7C14.5,4.9,15,4.6,15.7,4.4 M16.5,9.7c-1.1-0.5-3.8-1.2-3.9-1
		c-2.8,0.5-1.2,2.8,1.6,2.6c-0.6,0.2-0.9,0.5-2.4,0.1c-0.9,0.2,0.2,1.2,0.4,1.8c-0.5-0.4-1.9-0.9-1.4-2.3c-0.4-0.3-0.9-0.3-1.2,1
		c0.4,0.2,0.8,0.4,1.2,0.7c-1.6,0.5-3,2.4-3.5,4.3c0-1.1,0.6-2.2,1.2-3.2c-2.6,0.8-3.1,1.9-4,2.9C5.1,15,6,13.7,7.8,12.4
		c-0.4-0.3-1.4-0.6-2.1-0.6c1.4-0.3,2.7-0.4,3.8,0c-0.1-0.3-0.1-1,0.4-1.8C8.4,9.6,6,9.6,4.1,10.6c0.5-1.7,1.8-2.7,3.8-3.4
		C8,7,7.3,6.8,6.3,6.7c2.8-1.1,4.7-0.6,5.1-0.3c0.6-1.1,1-1.8,2-2.5c0.1,0.9,0.4,1.8,0.5,2.7c1.3,0.5,2.4,1.1,3.2,1.8
		c2.4,1.3,2.2,1,3.1,1.4c0.7,0.5-1.1,2.8-1.8,3c-4.3,0.2-6.4,1.8-7.4,5.8c-1.1-1.4-1.8-2.9,0-4.8c-0.5,1.1-0.7,2.1-0.3,3.2
		c1.9-3.6,3.9-4.1,7.5-4.7c0.4-0.1,1-0.6,1.3-1.5c-0.2,0-0.4-0.2-0.7-0.6c0.1-0.1,0.1-0.1,0.4-0.3c-0.9-0.4-1.7-0.9-2.6-1.3
		c-0.6-1-1.9-1.3-3.5-1.1c0.4-0.3,0.5-0.6,0.5-1c0-0.5-0.1-1-0.3-1.5c-0.4,0.4-0.5,0.8-0.5,1.3c0.1,0.4-0.1,0.7,0,0.8
		c-0.2-0.2,0-0.7-0.7-0.7c0.3-0.6,0.6-1,0.9-1.6c-0.5,0.3-0.9,0.7-1.3,1.6c0,0.6,0.3,1,0.7,1.5c-1-0.8-3.1-1.6-4.6-1.4
		c0.4,0.2,1.1,0.5,1.5,0.8c-1.5,0-3.8,0.9-3.9,2.1C6.8,9.4,8.9,9.3,10,9.8c0.4-0.4,0.9-0.9,1.8-1.3c0-0.3-0.2-0.5-0.5-0.7
		c1,0.2,2,0.5,3.1,0.7c0-0.1-0.1-0.2-0.1-0.3c0.9,0.1,1,0.3,1.6,0.6c-0.1,0.2-0.2,0.2-0.3,0.2C15.7,9.2,16.1,9.5,16.5,9.7"/>
	<path class="st1" d="M14.9,5.4c-0.2,0.5,0,1,0.1,1.6C15.2,7,15.4,7,15.6,7.1c-0.3-0.9-0.6-1.7,0.1-2.6c-0.7,0.2-1.2,0.5-1.5,0.8
		c0,0.2,0,0.5,0.1,0.7C14.4,5.6,14.5,5.3,14.9,5.4"/>
	<path class="st1" d="M20.2,9.8c-0.8-0.3-0.7,0-3.1-1.4c-0.9-0.7-1.9-1.3-3.2-1.8c0-0.9-0.3-1.8-0.5-2.7c-1,0.8-1.4,1.4-2,2.5
		C11,6.1,9.1,5.7,6.3,6.7C7.3,6.8,8,7,7.9,7.2c-2,0.7-3.3,1.7-3.8,3.4c1.9-1,4.3-1,5.7-0.6c-0.6,0.8-0.5,1.5-0.4,1.8
		c-1.1-0.4-2.4-0.3-3.8,0c0.8-0.1,1.8,0.3,2.1,0.6C6,13.7,5.1,15,4.4,16.5c0.9-1,1.4-2.2,4-2.9c-0.6,1-1.1,2.1-1.2,3.2
		c0.5-1.9,1.9-3.8,3.5-4.3c-0.4-0.3-0.8-0.5-1.2-0.7c0.4-1.2,0.8-1.3,1.2-0.9c-0.5,1.4,1,1.9,1.4,2.3c-0.2-0.5-1.3-1.6-0.4-1.8
		c1.5,0.4,1.8,0,2.4-0.1c-2.8,0.2-4.4-2.1-1.6-2.6c0-0.2,2.7,0.6,3.9,1c-0.4-0.3-0.8-0.5-1-0.8c0.1,0.1,0.2,0,0.3-0.2
		c-0.5-0.2-0.7-0.5-1.6-0.6c0,0.1,0.1,0.2,0.1,0.3c-1-0.2-2-0.5-3.1-0.7c0.4,0.2,0.6,0.4,0.5,0.7C11,8.9,10.4,9.3,10,9.8
		C8.9,9.3,6.8,9.4,5.4,9.6c0.1-1.2,2.4-2.1,3.9-2.1C8.9,7.1,8.1,6.8,7.8,6.6c1.6-0.2,3.6,0.5,4.6,1.4c-0.3-0.4-0.7-0.9-0.7-1.5
		c0.4-0.9,0.9-1.2,1.4-1.6c-0.3,0.6-0.6,1-0.9,1.6c0.7,0,0.5,0.6,0.7,0.7c-0.1-0.1,0-0.5,0-0.8c0-0.4,0.1-0.8,0.5-1.3
		c0.2,0.5,0.3,1,0.3,1.5c0,0.4-0.1,0.7-0.5,1c1.6-0.2,2.9,0.1,3.5,1.1c0.9,0.4,1.7,0.9,2.6,1.3c-0.2,0.1-0.3,0.2-0.4,0.3
		c0.3,0.4,0.5,0.6,0.7,0.6c-0.3,0.9-0.9,1.4-1.3,1.5c-3.6,0.5-5.6,1.1-7.5,4.7c-0.4-1.1-0.2-2.2,0.3-3.2c-1.8,1.9-1.1,3.4,0,4.8
		c0.9-4,3.1-5.6,7.4-5.8C19,12.6,20.9,10.2,20.2,9.8"/>
	<path class="st2" d="M26.6,15.6l2,4.4H28l-0.5-1.1h-1.8L25.2,20h-0.6L26.6,15.6z M26.6,16.9l-0.7,1.5h1.4L26.6,16.9z"/>
	<path class="st2" d="M28.9,15.7h0.6v2.6c0,0.4,0.1,0.7,0.3,0.9c0.2,0.2,0.5,0.3,0.8,0.3c0.3,0,0.6-0.1,0.8-0.3
		c0.2-0.2,0.3-0.5,0.3-0.8v-2.7h0.6v2.7c0,0.5-0.1,0.9-0.4,1.3c-0.3,0.3-0.7,0.5-1.2,0.5c-0.5,0-0.9-0.2-1.2-0.5
		c-0.3-0.3-0.5-0.8-0.5-1.4V15.7z"/>
	<polygon class="st2" points="32.8,15.7 35.5,15.7 35.5,16.3 34.4,16.3 34.4,20 33.9,20 33.9,16.3 32.8,16.3 	"/>
	<path class="st2" d="M35.9,17.8c0-0.6,0.2-1.1,0.7-1.6c0.5-0.4,1-0.7,1.7-0.7c0.6,0,1.2,0.2,1.7,0.7c0.5,0.4,0.7,1,0.7,1.6
		c0,0.6-0.2,1.2-0.7,1.6c-0.5,0.4-1,0.7-1.7,0.7c-0.7,0-1.2-0.2-1.7-0.7C36.2,19,35.9,18.5,35.9,17.8 M40.1,17.9
		c0-0.5-0.2-0.9-0.5-1.2c-0.3-0.3-0.8-0.5-1.3-0.5c-0.5,0-0.9,0.2-1.2,0.5c-0.3,0.3-0.5,0.7-0.5,1.2c0,0.5,0.2,0.9,0.5,1.2
		c0.3,0.3,0.8,0.5,1.3,0.5c0.5,0,0.9-0.2,1.2-0.5C39.9,18.7,40.1,18.3,40.1,17.9 M37.9,15.3l0.4-0.9h0.8l-0.7,0.9H37.9z"/>
	<polygon class="st2" points="41.4,15.6 44.6,18.8 44.6,15.7 45.2,15.7 45.2,20.2 42,17 42,20 41.4,20 	"/>
	<path class="st2" d="M45.9,17.8c0-0.6,0.2-1.1,0.7-1.6c0.5-0.4,1-0.7,1.7-0.7c0.6,0,1.2,0.2,1.7,0.7c0.5,0.4,0.7,1,0.7,1.6
		c0,0.6-0.2,1.2-0.7,1.6c-0.5,0.4-1,0.7-1.7,0.7c-0.7,0-1.2-0.2-1.7-0.7C46.1,19,45.9,18.5,45.9,17.8 M50,17.9
		c0-0.5-0.2-0.9-0.5-1.2c-0.3-0.3-0.8-0.5-1.3-0.5c-0.5,0-0.9,0.2-1.2,0.5c-0.3,0.3-0.5,0.7-0.5,1.2c0,0.5,0.2,0.9,0.5,1.2
		c0.3,0.3,0.8,0.5,1.3,0.5c0.5,0,0.9-0.2,1.2-0.5C49.8,18.7,50,18.3,50,17.9"/>
	<polygon class="st2" points="54.9,15.6 56,20 55.5,20 54.8,17.3 53.5,20.2 52.3,17.3 51.6,20 51,20 52.2,15.6 53.5,18.7 	"/>
	<path class="st2" d="M58.3,15.6l2,4.4h-0.6l-0.5-1.1h-1.8L56.9,20h-0.6L58.3,15.6z M58.2,16.9l-0.7,1.5h1.4L58.2,16.9z"/>
	<path class="st2" d="M62.7,15.7h1c0.8,0,1.4,0.2,1.8,0.7c0.4,0.4,0.6,0.9,0.6,1.5c0,0.6-0.2,1.1-0.6,1.5c-0.4,0.4-1,0.6-1.8,0.6h-1
		V15.7z M63.3,16.3v3.1h0c0.4,0,0.8,0,1-0.1c0.2,0,0.4-0.1,0.6-0.3c0.2-0.1,0.4-0.3,0.5-0.5c0.1-0.2,0.2-0.5,0.2-0.7
		c0-0.3-0.1-0.6-0.3-0.9c-0.2-0.3-0.4-0.4-0.7-0.5c-0.3-0.1-0.6-0.1-1-0.1H63.3z"/>
	<polygon class="st2" points="66.8,15.7 69.2,15.7 69.2,16.3 67.4,16.3 67.4,17.4 69.2,17.4 69.2,18 67.4,18 67.4,19.4 69.2,19.4 
		69.2,20 66.8,20 	"/>
	<path class="st2" d="M71.8,15.7h1c0.8,0,1.4,0.2,1.8,0.7c0.4,0.4,0.6,0.9,0.6,1.5c0,0.6-0.2,1.1-0.6,1.5c-0.4,0.4-1,0.6-1.8,0.6h-1
		V15.7z M72.4,16.3v3.1h0c0.4,0,0.8,0,1-0.1c0.2,0,0.4-0.1,0.6-0.3c0.2-0.1,0.4-0.3,0.5-0.5c0.1-0.2,0.2-0.5,0.2-0.7
		c0-0.3-0.1-0.6-0.3-0.9c-0.2-0.3-0.4-0.4-0.7-0.5c-0.3-0.1-0.6-0.1-1-0.1H72.4z"/>
	<path class="st2" d="M75.9,15.7h0.6v2.6c0,0.4,0.1,0.7,0.3,0.9c0.2,0.2,0.5,0.3,0.8,0.3c0.3,0,0.6-0.1,0.8-0.3
		c0.2-0.2,0.3-0.5,0.3-0.8v-2.7h0.6v2.7c0,0.5-0.1,0.9-0.4,1.3c-0.3,0.3-0.7,0.5-1.2,0.5c-0.5,0-0.9-0.2-1.2-0.5
		c-0.3-0.3-0.5-0.8-0.5-1.4V15.7z"/>
	<path class="st2" d="M80.2,15.7h0.9c0.5,0,0.8,0.1,1.1,0.3c0.3,0.2,0.4,0.5,0.4,0.9c0,0.3-0.1,0.5-0.3,0.8
		c-0.2,0.2-0.5,0.4-0.9,0.5l1.2,1.8h-0.7l-1.2-1.8h-0.1V20h-0.6V15.7z M80.8,16.2v1.5c0.9,0,1.3-0.2,1.3-0.7c0-0.2-0.1-0.3-0.2-0.4
		c-0.1-0.1-0.2-0.2-0.4-0.2C81.4,16.3,81.1,16.2,80.8,16.2"/>
	<path class="st2" d="M85.2,15.6l2,4.4h-0.6l-0.5-1.1h-1.8L83.8,20h-0.6L85.2,15.6z M85.1,16.9l-0.7,1.5h1.4L85.1,16.9z"/>
	<polygon class="st2" points="87.7,15.6 90.8,18.8 90.8,15.7 91.4,15.7 91.4,20.2 88.3,17 88.3,20 87.7,20 	"/>
	<path class="st2" d="M96.4,16.4L96,16.8c-0.4-0.4-0.9-0.6-1.5-0.6c-0.5,0-0.9,0.2-1.3,0.5c-0.3,0.3-0.5,0.7-0.5,1.2
		c0,0.4,0.2,0.8,0.5,1.1c0.3,0.3,0.8,0.5,1.3,0.5c0.9,0,1.4-0.4,1.6-1.1H95v-0.6h1.8c0,0.3,0,0.5-0.1,0.7c0,0.2-0.1,0.4-0.2,0.6
		c-0.1,0.2-0.3,0.4-0.5,0.6c-0.2,0.2-0.4,0.3-0.7,0.4c-0.2,0.1-0.5,0.1-0.8,0.1c-0.7,0-1.3-0.2-1.8-0.7c-0.4-0.5-0.7-1-0.7-1.6
		c0-0.6,0.2-1.2,0.7-1.6c0.5-0.4,1-0.7,1.6-0.7c0.4,0,0.7,0.1,1,0.2C95.8,15.9,96.1,16.1,96.4,16.4"/>
	<path class="st2" d="M97.4,17.8c0-0.6,0.2-1.1,0.7-1.6c0.5-0.4,1-0.7,1.7-0.7c0.6,0,1.2,0.2,1.7,0.7c0.5,0.4,0.7,1,0.7,1.6
		c0,0.6-0.2,1.2-0.7,1.6c-0.5,0.4-1,0.7-1.7,0.7c-0.7,0-1.2-0.2-1.7-0.7C97.7,19,97.4,18.5,97.4,17.8 M101.5,17.9
		c0-0.5-0.2-0.9-0.5-1.2c-0.3-0.3-0.8-0.5-1.3-0.5c-0.5,0-0.9,0.2-1.2,0.5c-0.3,0.3-0.5,0.7-0.5,1.2c0,0.5,0.2,0.9,0.5,1.2
		c0.3,0.3,0.8,0.5,1.3,0.5c0.5,0,0.9-0.2,1.2-0.5C101.4,18.7,101.5,18.3,101.5,17.9"/>
	<path class="st2" d="M30,12.4c-0.6,0.5-1.3,0.7-2.2,0.7c-0.9,0-1.6-0.2-2.2-0.7c-0.6-0.5-0.9-1.2-0.9-2.1V1.9h0.6v8.3
		c0,0.7,0.3,1.3,0.8,1.7c0.5,0.4,1.1,0.6,1.8,0.6c0.7,0,1.3-0.2,1.8-0.6c0.5-0.4,0.8-1,0.8-1.7V1.9H31v8.3
		C31,11.1,30.7,11.9,30,12.4"/>
	<polygon class="st2" points="32.9,3.6 32.9,13 32.3,13 32.3,1.9 40.5,11.5 40.5,1.9 41.2,1.9 41.2,13.2 	"/>
	<rect x="42.5" y="1.9" class="st2" width="0.6" height="11.1"/>
	<polygon class="st2" points="47.7,13.2 44.2,1.9 44.8,1.9 47.7,11.1 50.7,1.9 51.3,1.9 	"/>
	<polygon class="st2" points="52.9,13 52.9,1.9 58.2,1.9 58.2,2.6 53.5,2.6 53.5,6.6 58.2,6.6 58.2,7.3 53.5,7.3 53.5,12.4 
		58.2,12.4 58.2,13 	"/>
	<path class="st2" d="M64.8,13l-3.5-5.5h-1.2V13h-0.6V1.9H62c0.4,0,0.8,0.1,1.2,0.2c0.4,0.1,0.7,0.3,1,0.5c0.3,0.2,0.5,0.5,0.6,0.9
		c0.2,0.3,0.2,0.7,0.2,1.2c0,0.5-0.1,0.9-0.2,1.3c-0.2,0.4-0.4,0.6-0.6,0.9c-0.3,0.2-0.6,0.4-1,0.5c-0.4,0.1-0.8,0.2-1.2,0.2
		l3.5,5.5H64.8z M64.2,3.7c-0.1-0.3-0.3-0.5-0.5-0.7c-0.2-0.2-0.5-0.3-0.8-0.4c-0.3-0.1-0.6-0.1-0.9-0.1h-1.9v4.3h2.1
		c0.7,0,1.2-0.2,1.6-0.6c0.4-0.4,0.6-0.9,0.6-1.6C64.4,4.3,64.3,4,64.2,3.7"/>
	<path class="st2" d="M70.1,12.9c-0.4,0.1-0.9,0.2-1.4,0.2c-1.7,0-2.8-0.8-3.3-2.4l0.6-0.2c0.4,1.3,1.2,2,2.6,2
		c0.8,0,1.4-0.2,1.9-0.6c0.5-0.4,0.7-1,0.7-1.8c0-0.7-0.3-1.3-0.8-1.8c-0.1-0.1-0.4-0.3-0.7-0.4c-0.3-0.2-0.7-0.4-1.1-0.6
		c-0.9-0.4-1.5-0.7-1.8-1c-0.5-0.5-0.8-1.1-0.8-1.8c0-0.8,0.3-1.4,0.8-1.8c0.5-0.5,1.2-0.7,2-0.7c1.3,0,2.2,0.5,2.8,1.5L71,3.6
		c-0.2-0.3-0.5-0.6-0.7-0.8c-0.4-0.2-0.8-0.3-1.4-0.3c-0.6,0-1.1,0.2-1.5,0.5c-0.4,0.4-0.6,0.8-0.6,1.4c0,0.5,0.2,1,0.7,1.4
		c0.3,0.2,0.8,0.5,1.5,0.8c0.5,0.2,0.9,0.4,1.3,0.6c0.4,0.2,0.6,0.4,0.9,0.6c0.6,0.6,0.9,1.3,0.9,2.2C71.9,11.5,71.3,12.5,70.1,12.9
		"/>
	<rect x="73" y="1.9" class="st2" width="0.6" height="11.1"/>
	<path class="st2" d="M82.3,11.3c-0.9,1.1-2.1,1.7-3.6,1.7h-3.7V1.9h3.7c1.5,0,2.7,0.6,3.6,1.7c0.9,1,1.3,2.3,1.3,3.8
		C83.6,9,83.1,10.3,82.3,11.3 M81.8,4c-0.8-1-1.9-1.5-3.2-1.5h-3.1v9.8h3.1c1.1,0,2.1-0.4,3-1.3c0.9-0.9,1.3-2.1,1.3-3.6
		C82.9,6.1,82.5,5,81.8,4"/>
	<path class="st2" d="M92,13l-1.3-3.3h-5L84.4,13h-0.6l4.4-11.4L92.6,13H92z M88.2,3.2L85.9,9h4.5L88.2,3.2z"/>
	<path class="st2" d="M100.9,11.3c-0.9,1.1-2.1,1.7-3.6,1.7h-3.7V1.9h3.7c1.5,0,2.7,0.6,3.6,1.7c0.9,1,1.3,2.3,1.3,3.8
		C102.2,9,101.7,10.3,100.9,11.3 M100.4,4c-0.8-1-1.9-1.5-3.2-1.5h-3.1v9.8h3.1c1.1,0,2.1-0.4,3-1.3c0.9-0.9,1.3-2.1,1.3-3.6
		C101.5,6.1,101.1,5,100.4,4"/>
</g>
</svg>
