<?xml version="1.0" encoding="utf-8"?>
<!-- Generator: Adobe Illustrator 23.0.5, SVG Export Plug-In . SVG Version: 6.00 Build 0)  -->
<svg version="1.1" id="Capa_1" xmlns="http://www.w3.org/2000/svg" xmlns:xlink="http://www.w3.org/1999/xlink" x="0px" y="0px"
	 viewBox="0 0 100 25" style="enable-background:new 0 0 100 25;" xml:space="preserve">
<style type="text/css">
	.st0{fill:#FFFFFF;}
</style>
<g>
	<g>
		<g>
			<path class="st0" d="M57.28,11.1l-0.03-0.01c-2.56-0.56-4.13-0.99-4.13-2.77c0-1.74,1.44-2.82,3.75-2.82
				c2.23,0,3.61,1.18,3.61,3.08v0.78h2.32V8.58c0-3.22-2.38-5.38-5.92-5.38c-3.64,0-6.09,2.07-6.09,5.14c0,3.71,3.42,4.45,5.95,5.01
				c2.65,0.59,4.15,1.01,4.15,2.91c0,1.86-1.56,3.11-3.89,3.11c-2.61,0-4.23-1.35-4.23-3.52v-0.78h-2.34v0.78
				c0,3.49,2.64,5.83,6.58,5.83c3.67,0,6.23-2.23,6.23-5.43C63.24,12.43,59.94,11.69,57.28,11.1z"/>
			<path class="st0" d="M71.35,3.39l-0.03-0.07l-0.03,0.07h-0.82l-7.67,18.1h2.51l2.04-4.79h8.07l2.08,4.79h2.53l-7.87-18.1H71.35z
				 M68.31,14.42l3.02-7.16l3.1,7.16H68.31z"/>
			<path class="st0" d="M95.07,14.67l-0.19,0.51c-0.99,2.7-3.26,4.24-6.22,4.24c-4.04,0-6.86-2.86-6.86-6.96
				c0-4.12,2.82-6.99,6.86-6.99c2.87,0,5.09,1.45,6.09,3.97l0.19,0.49h2.42L97,8.89c-1.24-3.54-4.44-5.74-8.34-5.74
				c-5.33,0-9.19,3.91-9.19,9.31c0,5.37,3.87,9.27,9.19,9.27c4.07,0,7.24-2.26,8.47-6.05l0.33-1.02H95.07z"/>
		</g>
	</g>
	<g>
		<polygon class="st0" points="23.11,9.97 23.11,9.97 23.11,9.97 		"/>
		<path class="st0" d="M20.45,2.71c-0.34,0.9-0.03,1.73,0.11,2.58c0.31,0.09,0.63,0.17,0.94,0.26c-0.54-1.44-1.03-2.88,0.19-4.37
			c-1.15,0.32-2.01,0.76-2.57,1.33c0.04,0.38,0.07,0.76,0.11,1.14C19.51,3.13,19.78,2.57,20.45,2.71z"/>
		<path class="st0" d="M29.19,10.03c-1.39-0.55-1.22-0.04-5.12-2.28c-1.42-1.18-3.17-2.18-5.35-2.93c-0.05-1.54-0.54-3.04-0.76-4.56
			c-1.59,1.3-2.27,2.32-3.31,4.23c-0.69-0.55-3.89-1.29-8.48,0.49c1.7,0.11,2.73,0.4,2.61,0.84c-3.27,1.15-5.41,2.8-6.23,5.6
			c3.18-1.67,7.06-1.62,9.52-1.04c-0.92,1.29-0.78,2.46-0.67,3c-1.88-0.66-3.99-0.49-6.33-0.04c1.29-0.09,2.94,0.49,3.56,0.98
			c-2.91,2.27-4.54,4.36-5.66,6.93c1.51-1.73,2.31-3.57,6.65-4.83c-0.95,1.61-1.87,3.57-1.93,5.32c0.87-3.15,3.2-6.35,5.83-7.13
			c-0.63-0.53-1.29-0.91-1.98-1.17c0.65-2.03,1.36-2.09,2.07-1.58c-0.75,2.37,1.59,3.13,2.36,3.86c-0.39-0.87-2.16-2.64-0.66-2.95
			c2.55,0.69,3.04,0.07,4.06-0.21c-4.66,0.26-7.34-3.45-2.65-4.31c0.01-0.33,4.55,0.96,6.4,1.71c-0.75-0.43-1.38-0.88-1.59-1.35
			c0.12,0.09,0.31,0,0.54-0.27c-0.87-0.38-1.13-0.82-2.6-0.95c0.05,0.19,0.1,0.37,0.15,0.55c-1.7-0.4-3.4-0.81-5.1-1.21
			c0.6,0.36,0.94,0.74,0.87,1.15c-1.48,0.68-2.44,1.42-3.05,2.14c-1.94-0.81-5.37-0.7-7.72-0.34c0.16-1.96,3.92-3.52,6.49-3.53
			c-0.68-0.59-1.9-1.03-2.55-1.4c2.58-0.4,6.01,0.87,7.64,2.26c-0.57-0.72-1.19-1.41-1.12-2.42c0.69-1.46,1.47-2,2.24-2.58
			c-0.52,0.98-1,1.62-1.52,2.6c1.09,0.01,0.77,0.92,1.14,1.17c-0.21-0.22,0.08-0.77-0.03-1.37c-0.07-0.7,0.21-1.41,0.84-2.1
			c0.35,0.84,0.56,1.67,0.48,2.48c0.08,0.65-0.09,1.24-0.8,1.68c2.7-0.38,4.73,0.08,5.8,1.79c1.44,0.73,2.87,1.46,4.31,2.19
			c-0.38,0.21-0.46,0.26-0.6,0.44c0.51,0.66,0.88,0.94,1.22,1.01c-0.48,1.44-1.54,2.33-2.15,2.46c-5.96,0.88-9.3,1.78-12.45,7.74
			c-0.69-1.84-0.28-3.61,0.52-5.36c-3.06,3.12-1.85,5.61-0.03,8c1.55-6.69,5.12-9.27,12.21-9.65
			C27.29,14.72,30.41,10.77,29.19,10.03z"/>
	</g>
	<g>
		
			<rect x="39.91" y="0.3" transform="matrix(1 -1.190803e-03 1.190803e-03 1 -7.589485e-03 0.0484)" class="st0" width="1.42" height="12.21"/>
		
			<rect x="38.51" y="12.5" transform="matrix(1 -1.190803e-03 1.190803e-03 1 -0.0221 0.0467)" class="st0" width="1.42" height="12.21"/>
	</g>
</g>
</svg>
