<!-- Generator: Adobe Illustrator 22.1.0, SVG Export Plug-In  -->
<svg version="1.1"
	 xmlns="http://www.w3.org/2000/svg" xmlns:xlink="http://www.w3.org/1999/xlink" xmlns:a="http://ns.adobe.com/AdobeSVGViewerExtensions/3.0/"
	 x="0px" y="0px" width="419.841px" height="84.055px" viewBox="0 0 419.841 84.055"
	 style="enable-background:new 0 0 419.841 84.055;" xml:space="preserve">
<defs>
</defs>
<g>
	<g>
		<g>
			<rect x="172.263" y="11.806" width="1.948" height="2.142"/>
			<g>
				<path d="M163.818,28.63c3.258,0,5.534-1.968,5.534-4.787c0-3.34-2.961-4.002-5.365-4.54c-2.524-0.55-4.056-1.016-4.056-2.837
					c0-1.751,1.474-2.882,3.755-2.882c2.206,0,3.63,1.226,3.63,3.124v0.458h1.63v-0.458c0-2.833-2.109-4.737-5.249-4.737
					c-3.231,0-5.401,1.815-5.401,4.517c0,3.233,2.941,3.874,5.337,4.398c2.521,0.56,4.067,1.003,4.067,2.962
					c0,1.887-1.562,3.156-3.886,3.156c-2.555,0-4.206-1.387-4.206-3.535v-0.458h-1.646v0.458
					C157.96,26.556,160.315,28.63,163.818,28.63z"/>
				<rect x="171.783" y="15.667" width="1.619" height="12.781"/>
				<path d="M180.803,20.974c-2.084-0.349-3.263-0.611-3.263-1.938c0-1.237,1.199-2.036,3.052-2.036c1.884,0,3.02,0.818,3.12,2.243
					l0.029,0.427h1.589l-0.027-0.484c-0.132-2.313-1.932-3.75-4.7-3.75c-2.748,0-4.666,1.488-4.666,3.617
					c0,2.72,2.526,3.152,4.557,3.5c2.12,0.358,3.508,0.71,3.508,2.295c0,1.367-1.297,2.25-3.306,2.25
					c-1.172,0-3.17-0.31-3.388-2.387l-0.045-0.41h-1.603l0.043,0.498c0.211,2.429,2.072,3.879,4.977,3.879
					c2.952,0,4.936-1.548,4.936-3.853C185.616,21.777,182.835,21.313,180.803,20.974z"/>
				<path d="M188.648,24.387c0,2.508,1.537,4.067,4.013,4.067h2.011v-1.586h-1.952c-1.582,0-2.453-0.891-2.453-2.508v-7.133h4.306
					V15.69h-4.306v-3.51h-1.619v3.51h-2.735v1.537h2.735V24.387z"/>
				<path d="M201.42,28.679c2.594,0,4.68-1.377,5.873-3.875l0.313-0.656h-1.751l-0.127,0.248c-0.895,1.725-2.424,2.675-4.308,2.675
					c-2.526,0-4.462-1.798-4.759-4.34h11.015l0.025-0.432c0.005-0.102,0.011-0.222,0.011-0.323c0-3.728-2.705-6.539-6.292-6.539
					c-3.653,0-6.407,2.839-6.407,6.605C195.014,25.826,197.767,28.679,201.42,28.679z M201.42,17.029
					c2.438,0,4.285,1.671,4.635,4.121h-9.368C197.062,18.7,198.948,17.029,201.42,17.029z"/>
				<path d="M226.195,28.448h1.601v-7.945c0-3.031-1.784-5.067-4.44-5.067c-1.832,0-3.36,0.852-4.256,2.327
					c-0.742-1.475-2.111-2.327-3.825-2.327c-1.51,0-2.841,0.599-3.764,1.653l-0.064-1.422h-1.456v12.781h1.619v-7.393
					c0.014-2.419,1.442-4.043,3.551-4.043c1.807,0,2.93,1.399,2.93,3.651v7.786h1.608v-7.393c0.014-2.419,1.442-4.043,3.553-4.043
					c1.777,0,2.925,1.433,2.925,3.651L226.195,28.448z"/>
				<path d="M236.463,28.679c2.029,0,3.809-0.827,4.993-2.27l0.052,2.04h1.521V15.667h-1.503l-0.059,2.049
					c-1.186-1.449-2.968-2.279-5.004-2.279c-3.712,0-6.512,2.846-6.512,6.62C229.95,25.833,232.75,28.679,236.463,28.679z
					 M236.5,27.077c-2.805,0-4.92-2.158-4.92-5.019c0-2.861,2.115-5.018,4.92-5.018c2.839,0,4.898,2.11,4.898,5.018
					S239.339,27.077,236.5,27.077z"/>
				<path d="M258.067,28.679c2.011,0,3.784-0.818,4.972-2.243l0.066,2.013h1.488V11.476h-1.619v6.126
					c-1.188-1.377-2.934-2.166-4.907-2.166c-3.709,0-6.507,2.846-6.507,6.621S254.359,28.679,258.067,28.679z M258.105,27.076
					c-2.802,0-4.915-2.158-4.915-5.018s2.113-5.018,4.915-5.018c2.841,0,4.904,2.11,4.904,5.018S260.946,27.076,258.105,27.076z"/>
				<path d="M273.373,28.679c2.594,0,4.68-1.377,5.874-3.875l0.313-0.656h-1.751l-0.127,0.248c-0.895,1.725-2.424,2.675-4.308,2.675
					c-2.526,0-4.462-1.798-4.759-4.34h11.015l0.025-0.432c0.005-0.102,0.011-0.222,0.011-0.323c0-3.728-2.705-6.539-6.292-6.539
					c-3.653,0-6.407,2.839-6.407,6.605C266.966,25.826,269.719,28.679,273.373,28.679z M273.373,17.029
					c2.439,0,4.285,1.671,4.635,4.121h-9.368C269.015,18.7,270.9,17.029,273.373,17.029z"/>
			</g>
			<path d="M164.816,32.304L158.01,48.6h1.736l1.87-4.455h7.737l1.901,4.455h1.752l-6.985-16.297H164.816z M162.274,42.554
				l3.162-7.587l3.244,7.587H162.274z"/>
			<path d="M183.292,43.083c0,2.596-1.435,4.145-3.838,4.145c-2.403,0-3.838-1.549-3.838-4.145v-7.264h-1.619v7.347
				c0,3.441,2.142,5.665,5.457,5.665c3.315,0,5.457-2.224,5.457-5.665v-7.347h-1.619V43.083z"/>
			<path d="M190.538,44.511v-7.133h4.306v-1.537h-4.306v-3.51h-1.619v3.51h-2.735v1.537h2.735v7.161
				c0,2.508,1.537,4.067,4.013,4.067h2.013V47.02h-1.954C191.409,47.02,190.538,46.129,190.538,44.511z"/>
			<path d="M201.9,35.588c-3.78,0-6.632,2.846-6.632,6.621s2.852,6.621,6.632,6.621c3.78,0,6.632-2.846,6.632-6.621
				S205.681,35.588,201.9,35.588z M201.9,47.228c-2.852,0-5.002-2.158-5.002-5.018c0-2.908,2.104-5.018,5.002-5.018
				c2.898,0,5.002,2.11,5.002,5.018S204.799,47.228,201.9,47.228z"/>
			<path d="M221.36,37.869c-1.186-1.449-2.968-2.279-5.004-2.279c-3.712,0-6.512,2.846-6.512,6.62c0,3.775,2.8,6.621,6.512,6.621
				c2.029,0,3.809-0.827,4.993-2.27l0.052,2.04h1.521V35.819h-1.503L221.36,37.869z M216.394,47.229c-2.805,0-4.92-2.158-4.92-5.019
				c0-2.861,2.115-5.018,4.92-5.018c2.839,0,4.898,2.11,4.898,5.018S219.233,47.229,216.394,47.229z"/>
			<path d="M232.887,35.588c-2.002,0-3.82,0.867-5.02,2.332l-0.095-2.101h-1.44v16.972h1.619v-6.183
				c1.197,1.413,2.954,2.223,4.936,2.223c3.757,0,6.484-2.785,6.484-6.621S236.644,35.588,232.887,35.588z M232.848,37.191
				c2.839,0,4.898,2.11,4.898,5.018s-2.059,5.018-4.898,5.018c-2.805,0-4.92-2.158-4.92-5.018
				C227.928,39.349,230.042,37.191,232.848,37.191z"/>
			<path d="M248.563,35.786h-1.48c-1.56,0-2.891,0.6-3.818,1.687l-0.072-1.654h-1.451V48.6h1.619v-7.137
				c0-2.404,1.512-4.084,3.678-4.084h1.522V35.786z"/>
			<path d="M254.914,35.588c-3.653,0-6.407,2.839-6.407,6.605c0,3.784,2.753,6.637,6.407,6.637c2.594,0,4.68-1.377,5.874-3.875
				l0.313-0.656h-1.751l-0.127,0.248c-0.895,1.725-2.424,2.675-4.308,2.675c-2.526,0-4.462-1.798-4.759-4.34h11.015l0.025-0.432
				c0.005-0.102,0.011-0.222,0.011-0.323C261.206,38.4,258.501,35.588,254.914,35.588z M250.182,41.302
				c0.374-2.45,2.26-4.121,4.732-4.121c2.439,0,4.285,1.671,4.635,4.121H250.182z"/>
			<path d="M269.269,35.588c-1.658,0-3.211,0.742-4.256,1.971l-0.079-1.74h-1.451V48.6h1.619v-7.368
				c0-2.205,1.848-4.068,4.034-4.068c2.303,0,3.623,1.487,3.623,4.079V48.6h1.619v-7.478
				C274.379,37.76,272.373,35.588,269.269,35.588z"/>
			<path d="M287.935,37.754c-1.188-1.377-2.934-2.166-4.907-2.166c-3.709,0-6.507,2.846-6.507,6.621s2.798,6.621,6.507,6.621
				c2.011,0,3.784-0.818,4.972-2.243l0.066,2.013h1.488V31.628h-1.619V37.754z M283.065,47.228c-2.802,0-4.915-2.158-4.915-5.018
				c0-2.861,2.113-5.018,4.915-5.018c2.841,0,4.904,2.11,4.904,5.018S285.906,47.228,283.065,47.228z"/>
			<rect x="292.964" y="35.819" width="1.619" height="12.781"/>
			<rect x="292.799" y="31.958" width="1.948" height="2.142"/>
			<polygon points="306.033,36.618 306.033,35.819 296.773,35.819 296.773,37.4 303.587,37.4 296.404,47.796 296.404,48.6 
				306.187,48.6 306.187,47.014 298.857,47.014 			"/>
			<path d="M318.22,37.869c-1.186-1.449-2.968-2.279-5.004-2.279c-3.712,0-6.512,2.846-6.512,6.62c0,3.775,2.8,6.621,6.512,6.621
				c2.029,0,3.809-0.827,4.993-2.27l0.052,2.04h1.521V35.819h-1.503L318.22,37.869z M313.253,47.229c-2.805,0-4.92-2.158-4.92-5.019
				c0-2.861,2.115-5.018,4.92-5.018c2.839,0,4.898,2.11,4.898,5.018S316.093,47.229,313.253,47.229z"/>
			<rect x="323.295" y="31.958" width="1.948" height="2.142"/>
			<path d="M323.455,48.774c0,1.574-0.871,2.442-2.453,2.442h-0.877v1.575h0.948c2.43,0,4-1.562,4-3.979V35.819h-1.619V48.774z"/>
			<path d="M333.858,35.588c-3.653,0-6.407,2.839-6.407,6.605c0,3.784,2.753,6.637,6.407,6.637c2.594,0,4.68-1.377,5.874-3.875
				l0.313-0.656h-1.751l-0.127,0.248c-0.895,1.725-2.424,2.675-4.308,2.675c-2.526,0-4.462-1.798-4.759-4.34h11.015l0.025-0.432
				c0.005-0.102,0.011-0.222,0.011-0.323C340.15,38.4,337.445,35.588,333.858,35.588z M329.126,41.302
				c0.374-2.45,2.26-4.121,4.732-4.121c2.439,0,4.285,1.671,4.635,4.121H329.126z"/>
			<path d="M355.16,35.588c-2.002,0-3.82,0.867-5.02,2.332l-0.095-2.101h-1.44v16.972h1.619v-6.183
				c1.197,1.413,2.954,2.223,4.936,2.223c3.757,0,6.484-2.785,6.484-6.621S358.917,35.588,355.16,35.588z M355.121,37.191
				c2.839,0,4.898,2.11,4.898,5.018s-2.059,5.018-4.898,5.018c-2.805,0-4.92-2.158-4.92-5.018
				C350.201,39.349,352.316,37.191,355.121,37.191z"/>
			<path d="M369.593,35.588c-3.78,0-6.632,2.846-6.632,6.621s2.852,6.621,6.632,6.621c3.78,0,6.632-2.846,6.632-6.621
				S373.373,35.588,369.593,35.588z M369.593,47.228c-2.852,0-5.002-2.158-5.002-5.018c0-2.908,2.104-5.018,5.002-5.018
				s5.002,2.11,5.002,5.018S372.491,47.228,369.593,47.228z"/>
			<path d="M383.93,35.786c-1.56,0-2.891,0.6-3.818,1.687l-0.072-1.654h-1.451V48.6h1.619v-7.137c0-2.404,1.512-4.084,3.678-4.084
				h1.522v-1.592H383.93z"/>
		</g>
		<g>
			<path d="M157.95,61.991c0-5.322,4.021-9.308,9.407-9.308c4.636,0,8.227,3.06,8.948,7.546h-4.939
				c-0.607-1.815-2.136-2.993-3.998-2.993c-2.504,0-4.342,2.015-4.342,4.754c0,2.729,1.838,4.715,4.342,4.715
				c1.963,0,3.507-1.279,4.003-3.245h4.984c-0.673,4.652-4.284,7.81-8.997,7.81C161.971,71.269,157.95,67.283,157.95,61.991z"/>
			<path d="M180.199,63.997c0-4.23,3.202-7.27,7.653-7.27c4.435,0,7.651,3.041,7.651,7.27c0,4.217-3.216,7.271-7.651,7.271
				C183.401,71.269,180.199,68.214,180.199,63.997z M190.795,63.998c0-1.794-1.229-3.049-2.943-3.049
				c-1.714,0-2.945,1.244-2.945,3.048c0,1.805,1.231,3.049,2.945,3.049C189.567,67.046,190.795,65.802,190.795,63.998z"/>
			<path d="M209.098,57.109v4.302h-1.825c-1.663,0-2.36,0.73-2.36,2.47v6.94h-4.7V57.173h3.149l0.733,1.515
				c0.963-1.113,2.136-1.579,3.76-1.579H209.098z"/>
			<path d="M222.299,57.109v4.302h-1.825c-1.663,0-2.36,0.73-2.36,2.47v6.94h-4.7V57.173h3.149l0.733,1.515
				c0.963-1.113,2.136-1.579,3.76-1.579H222.299z"/>
			<path d="M240.446,63.869c0,0.411-0.035,0.822-0.097,1.244h-10.133c0.307,1.566,1.301,2.375,2.784,2.375
				c1.099,0,2.017-0.481,2.467-1.279h4.68c-0.961,3.115-3.723,5.06-7.147,5.06c-4.258,0-7.412-3.113-7.412-7.282
				c0-4.184,3.13-7.26,7.412-7.26c4.4,0,7.445,3.138,7.445,7.141V63.869z M230.298,62.509h5.517c-0.414-1.363-1.395-2.1-2.815-2.1
				C231.632,60.409,230.679,61.154,230.298,62.509z"/>
			<path d="M250.387,71.268c-3.719,0-5.98-1.964-6.023-4.921h4.525c0,0.998,0.696,1.458,1.587,1.458c0.687,0,1.34-0.351,1.34-1.056
				c0-0.788-1.033-1.012-2.346-1.229c-2.115-0.344-4.92-0.982-4.92-4.292c0-2.736,2.332-4.502,5.828-4.502
				c3.476,0,5.727,1.848,5.781,4.614h-4.402c0-0.872-0.586-1.277-1.436-1.277c-0.755,0-1.261,0.374-1.261,1.006
				c0,0.776,1.045,0.957,2.342,1.188c2.155,0.383,5.021,0.83,5.021,4.292c0,2.852-2.408,4.719-6.034,4.719V71.268z"/>
			<path d="M276.283,63.997c0,4.253-2.984,7.286-7.155,7.286c-1.235,0-2.365-0.325-3.328-0.906v5.373h-4.647V57.173h3.196
				l0.589,1.084c1.124-0.97,2.566-1.531,4.19-1.531C273.3,56.727,276.283,59.746,276.283,63.997z M271.554,63.997
				c0-1.793-1.294-3.124-3.056-3.124c-1.762,0-3.056,1.33-3.056,3.124c0,1.792,1.294,3.123,3.056,3.123
				C270.248,67.12,271.554,65.79,271.554,63.997z"/>
			<path d="M280.183,63.997c0-4.23,3.202-7.27,7.653-7.27c4.435,0,7.651,3.041,7.651,7.27c0,4.217-3.216,7.271-7.651,7.271
				C283.385,71.269,280.183,68.214,280.183,63.997z M290.779,63.998c0-1.794-1.229-3.049-2.943-3.049s-2.945,1.244-2.945,3.048
				c0,1.805,1.231,3.049,2.945,3.049S290.779,65.802,290.779,63.998z"/>
			<path d="M313.687,62.499v8.322h-4.7v-7.672c0-1.589-0.597-2.377-1.78-2.377c-1.465,0-2.309,1.024-2.309,2.761v7.288h-4.7V57.173
				h3.297l0.646,1.408c1.017-1.132,2.531-1.811,4.297-1.811C311.607,56.77,313.687,59.022,313.687,62.499z"/>
			<path d="M333.449,52.246v18.575h-3.478l-0.444-1.014c-1.109,0.934-2.527,1.475-4.116,1.475c-4.188,0-7.172-3.045-7.172-7.286
				s2.984-7.27,7.172-7.27c1.259,0,2.412,0.34,3.391,0.947v-5.428H333.449z M329.095,63.997c0-1.782-1.294-3.123-3.056-3.123
				c-1.759,0-3.054,1.341-3.054,3.123c0,1.782,1.294,3.124,3.054,3.124C327.8,67.121,329.095,65.779,329.095,63.997z"/>
			<path d="M352.999,63.869c0,0.411-0.035,0.822-0.097,1.244h-10.133c0.307,1.566,1.301,2.375,2.784,2.375
				c1.099,0,2.017-0.481,2.467-1.279h4.68c-0.961,3.115-3.723,5.06-7.147,5.06c-4.258,0-7.412-3.113-7.412-7.282
				c0-4.184,3.13-7.26,7.412-7.26c4.4,0,7.445,3.138,7.445,7.141V63.869z M342.851,62.509h5.517c-0.414-1.363-1.395-2.1-2.815-2.1
				C344.185,60.409,343.232,61.154,342.851,62.509z"/>
			<path d="M371.164,62.499v8.322h-4.7v-7.672c0-1.589-0.597-2.377-1.78-2.377c-1.465,0-2.309,1.024-2.309,2.761v7.288h-4.7V57.173
				h3.297l0.646,1.408c1.017-1.132,2.531-1.811,4.297-1.811C369.083,56.77,371.164,59.022,371.164,62.499z"/>
			<path d="M383.264,71.268c-4.377,0-7.536-3.066-7.536-7.289s3.144-7.231,7.55-7.231c3.836,0,6.711,2.418,7.225,6.048h-4.579
				c-0.395-1.113-1.436-1.836-2.661-1.836c-1.652,0-2.828,1.255-2.828,3.033c0,1.778,1.189,3.063,2.828,3.063
				c1.261,0,2.282-0.773,2.671-1.991h4.62c-0.533,3.706-3.449,6.203-7.291,6.203V71.268z"/>
			<path d="M395.123,57.173h4.7v13.648h-4.7V57.173z M395.158,51.476h4.628v3.989h-4.628V51.476z"/>
			<path d="M419.841,57.159v13.648h-3.634l-0.403-0.965c-1.117,0.905-2.533,1.427-4.118,1.427c-4.173,0-7.155-3.045-7.155-7.286
				c0-4.227,2.982-7.235,7.155-7.235c1.607,0,3.044,0.537,4.169,1.467l0.482-1.056H419.841z M415.369,63.993
				c0-1.771-1.294-3.101-3.056-3.101c-1.77,0-3.054,1.33-3.054,3.101c0,1.783,1.294,3.114,3.054,3.114
				C414.074,67.107,415.369,65.776,415.369,63.993z"/>
		</g>
	</g>
	<g>
		<polygon points="70.664,33.346 70.657,33.343 70.664,33.347 		"/>
		<path d="M61.524,8.399c-1.168,3.076-0.109,5.935,0.378,8.846c1.078,0.3,2.153,0.597,3.23,0.895
			c-1.871-4.945-3.552-9.896,0.636-15.004c-3.951,1.088-6.893,2.615-8.823,4.582c0.128,1.307,0.253,2.614,0.38,3.92
			C58.311,9.843,59.218,7.907,61.524,8.399z"/>
		<path d="M91.54,33.526c-4.789-1.881-4.179-0.141-17.601-7.817c-4.869-4.068-10.888-7.481-18.368-10.054
			C55.411,10.367,53.732,5.228,52.947,0c-5.455,4.462-7.815,7.983-11.385,14.528c-2.387-1.893-13.358-4.433-29.124,1.675
			c5.823,0.391,9.377,1.358,8.952,2.878C10.145,23.045,2.819,28.697,0,38.313c10.917-5.728,24.26-5.58,32.7-3.565
			c-3.153,4.435-2.691,8.458-2.305,10.318c-6.457-2.284-13.708-1.67-21.743-0.148c4.418-0.301,10.105,1.68,12.235,3.364
			C10.876,56.073,5.289,63.263,1.452,72.08c5.181-5.934,7.936-12.268,22.832-16.587c-3.251,5.516-6.419,12.251-6.622,18.275
			c2.976-10.809,10.998-21.804,20.023-24.51c-2.158-1.809-4.421-3.109-6.796-4.009c2.247-6.981,4.662-7.176,7.118-5.415
			c-2.584,8.157,5.455,10.763,8.092,13.275c-1.338-3.004-7.411-9.057-2.257-10.125c8.765,2.365,10.451,0.255,13.949-0.709
			c-16,0.901-25.23-11.852-9.113-14.8c0.047-1.118,15.623,3.301,21.978,5.867c-2.561-1.493-4.729-3.017-5.468-4.652
			c0.429,0.303,1.048-0.008,1.855-0.934c-2.979-1.313-3.876-2.831-8.933-3.279c0.176,0.637,0.347,1.27,0.52,1.906
			c-5.837-1.385-11.676-2.769-17.516-4.155c2.071,1.224,3.216,2.531,3.006,3.967c-5.083,2.334-8.372,4.873-10.475,7.34
			c-6.657-2.778-18.462-2.394-26.514-1.181c0.541-6.747,13.48-12.095,22.29-12.122c-2.319-2.036-6.518-3.543-8.768-4.82
			c8.864-1.377,20.641,3.006,26.26,7.749c-1.968-2.46-4.079-4.854-3.843-8.301c2.363-5.024,5.034-6.879,7.697-8.859
			c-1.791,3.36-3.423,5.566-5.213,8.924c3.735,0.021,2.657,3.162,3.916,4.018c-0.726-0.744,0.258-2.659-0.111-4.702
			c-0.242-2.414,0.72-4.827,2.886-7.226c1.187,2.888,1.922,5.739,1.656,8.516c0.271,2.247-0.307,4.261-2.751,5.768
			c9.27-1.312,16.259,0.289,19.92,6.137c4.934,2.506,9.872,5.009,14.809,7.513c-1.299,0.705-1.597,0.897-2.06,1.52
			c1.756,2.282,3.036,3.213,4.202,3.478c-1.636,4.938-5.297,8.02-7.373,8.443c-20.487,3.01-31.945,6.104-42.776,26.578
			c-2.382-6.318-0.977-12.406,1.8-18.405c-10.512,10.715-6.347,19.259-0.089,27.493c5.318-22.98,17.582-31.837,41.948-33.148
			C85.017,49.651,95.748,36.089,91.54,33.526z"/>
	</g>
	<g>
		<rect x="125.41" y="4.13" transform="matrix(1 -0.0012 0.0012 1 -0.0274 0.152)" width="4.402" height="37.898"/>
		<rect x="121.07" y="42.025" transform="matrix(1 -0.0012 0.0012 1 -0.0725 0.1468)" width="4.402" height="37.898"/>
	</g>
</g>
</svg>